<svg width="29" height="29" viewBox="0 0 29 29" fill="none" xmlns="http://www.w3.org/2000/svg">
<path d="M25.6082 5.02232H24.1128C24.1113 5.02232 24.1099 5.02292 24.1088 5.02398C24.1078 5.02504 24.1072 5.02647 24.1072 5.02797V24.1071C24.1072 24.6399 24.3188 25.1509 24.6956 25.5277C25.0723 25.9044 25.5833 26.1161 26.1161 26.1161C26.6489 26.1161 27.1599 25.9044 27.5366 25.5277C27.9134 25.1509 28.125 24.6399 28.125 24.1071V7.53913C28.125 6.87163 27.8599 6.23147 27.3879 5.75948C26.9159 5.28749 26.2757 5.02232 25.6082 5.02232V5.02232Z" fill="#535252"/>
<path d="M22.0982 24.1071V2.51116C22.0982 2.18139 22.0333 1.85485 21.9071 1.55018C21.7809 1.24551 21.5959 0.968685 21.3627 0.735502C21.1295 0.502319 20.8527 0.317348 20.548 0.191151C20.2434 0.0649531 19.9168 0 19.5871 0H2.51116C1.84516 0 1.20644 0.264568 0.735502 0.735502C0.264568 1.20644 0 1.84516 0 2.51116V24.6094C0 25.5418 0.370395 26.436 1.0297 27.0953C1.68901 27.7546 2.58322 28.125 3.51563 28.125H25.0394C25.0489 28.1251 25.0583 28.1233 25.0671 28.1197C25.0759 28.1161 25.0839 28.1108 25.0907 28.104C25.0974 28.0973 25.1027 28.0893 25.1063 28.0805C25.1099 28.0717 25.1117 28.0623 25.1116 28.0528C25.1116 28.037 25.1063 28.0217 25.0967 28.0092C25.087 27.9967 25.0735 27.9878 25.0582 27.9838C24.2086 27.7507 23.4588 27.2452 22.9241 26.5449C22.3894 25.8446 22.0993 24.9882 22.0982 24.1071V24.1071ZM4.01786 6.02679C4.01786 5.76039 4.12368 5.5049 4.31206 5.31652C4.50043 5.12815 4.75592 5.02232 5.02232 5.02232H9.04018C9.30658 5.02232 9.56207 5.12815 9.75044 5.31652C9.93882 5.5049 10.0446 5.76039 10.0446 6.02679V10.0446C10.0446 10.311 9.93882 10.5665 9.75044 10.7549C9.56207 10.9433 9.30658 11.0491 9.04018 11.0491H5.02232C4.75592 11.0491 4.50043 10.9433 4.31206 10.7549C4.12368 10.5665 4.01786 10.311 4.01786 10.0446V6.02679ZM17.0759 23.1027H5.05057C4.51004 23.1027 4.04611 22.6871 4.01911 22.1466C4.01257 22.0107 4.03367 21.875 4.08113 21.7476C4.12859 21.6202 4.20143 21.5037 4.29523 21.4053C4.38903 21.3069 4.50184 21.2285 4.62682 21.1749C4.7518 21.1214 4.88635 21.0938 5.02232 21.0938H17.0476C17.5882 21.0938 18.0521 21.5093 18.0791 22.0499C18.0856 22.1857 18.0645 22.3214 18.0171 22.4488C17.9696 22.5763 17.8968 22.6927 17.803 22.7911C17.7092 22.8896 17.5964 22.9679 17.4714 23.0215C17.3464 23.0751 17.2119 23.1027 17.0759 23.1027V23.1027ZM17.0759 19.0848H5.05057C4.51004 19.0848 4.04611 18.6692 4.01911 18.1287C4.01257 17.9929 4.03367 17.8572 4.08113 17.7297C4.12859 17.6023 4.20143 17.4859 4.29523 17.3874C4.38903 17.289 4.50184 17.2106 4.62682 17.1571C4.7518 17.1035 4.88635 17.0759 5.02232 17.0759H17.0476C17.5882 17.0759 18.0521 17.4915 18.0791 18.032C18.0856 18.1678 18.0645 18.3036 18.0171 18.431C17.9696 18.5584 17.8968 18.6749 17.803 18.7733C17.7092 18.8717 17.5964 18.9501 17.4714 19.0036C17.3464 19.0572 17.2119 19.0848 17.0759 19.0848V19.0848ZM17.0759 15.067H5.05057C4.51004 15.067 4.04611 14.6514 4.01911 14.1108C4.01257 13.975 4.03367 13.8393 4.08113 13.7119C4.12859 13.5845 4.20143 13.468 4.29523 13.3696C4.38903 13.2711 4.50184 13.1928 4.62682 13.1392C4.7518 13.0857 4.88635 13.058 5.02232 13.058H17.0476C17.5882 13.058 18.0521 13.4736 18.0791 14.0142C18.0856 14.15 18.0645 14.2857 18.0171 14.4131C17.9696 14.5405 17.8968 14.657 17.803 14.7554C17.7092 14.8539 17.5964 14.9322 17.4714 14.9858C17.3464 15.0393 17.2119 15.067 17.0759 15.067V15.067ZM17.0759 11.0491H13.0863C12.5458 11.0491 12.0818 10.6335 12.0548 10.093C12.0483 9.95717 12.0694 9.82144 12.1168 9.69402C12.1643 9.56661 12.2371 9.45015 12.3309 9.35172C12.4247 9.25328 12.5376 9.17491 12.6625 9.12136C12.7875 9.06781 12.9221 9.04019 13.058 9.04018H17.0476C17.5882 9.04018 18.0521 9.45578 18.0791 9.9963C18.0856 10.1321 18.0645 10.2678 18.0171 10.3953C17.9696 10.5227 17.8968 10.6391 17.803 10.7376C17.7092 10.836 17.5964 10.9144 17.4714 10.9679C17.3464 11.0215 17.2119 11.0491 17.0759 11.0491V11.0491ZM17.0759 7.03125H13.0863C12.5458 7.03125 12.0818 6.61565 12.0548 6.07513C12.0483 5.93931 12.0694 5.80359 12.1168 5.67617C12.1643 5.54875 12.2371 5.43229 12.3309 5.33386C12.4247 5.23542 12.5376 5.15705 12.6625 5.1035C12.7875 5.04995 12.9221 5.02233 13.058 5.02232H17.0476C17.5882 5.02232 18.0521 5.43792 18.0791 5.97845C18.0856 6.11426 18.0645 6.24999 18.0171 6.37741C17.9696 6.50482 17.8968 6.62128 17.803 6.71971C17.7092 6.81815 17.5964 6.89652 17.4714 6.95007C17.3464 7.00362 17.2119 7.03124 17.0759 7.03125Z" fill="#535252"/>
</svg>
