<svg width="28" height="28" viewBox="0 0 28 28" fill="none" xmlns="http://www.w3.org/2000/svg">
<path d="M7 3.5C7 4.42826 6.63125 5.3185 5.97487 5.97487C5.3185 6.63125 4.42826 7 3.5 7C2.57174 7 1.6815 6.63125 1.02513 5.97487C0.368749 5.3185 0 4.42826 0 3.5C0 2.57174 0.368749 1.6815 1.02513 1.02513C1.6815 0.368749 2.57174 0 3.5 0C4.42826 0 5.3185 0.368749 5.97487 1.02513C6.63125 1.6815 7 2.57174 7 3.5V3.5Z" fill="#535252"/>
<path d="M7 14C7 14.9283 6.63125 15.8185 5.97487 16.4749C5.3185 17.1313 4.42826 17.5 3.5 17.5C2.57174 17.5 1.6815 17.1313 1.02513 16.4749C0.368749 15.8185 0 14.9283 0 14C0 13.0717 0.368749 12.1815 1.02513 11.5251C1.6815 10.8687 2.57174 10.5 3.5 10.5C4.42826 10.5 5.3185 10.8687 5.97487 11.5251C6.63125 12.1815 7 13.0717 7 14Z" fill="#535252"/>
<path d="M3.5 28C4.42826 28 5.3185 27.6313 5.97487 26.9749C6.63125 26.3185 7 25.4283 7 24.5C7 23.5717 6.63125 22.6815 5.97487 22.0251C5.3185 21.3687 4.42826 21 3.5 21C2.57174 21 1.6815 21.3687 1.02513 22.0251C0.368749 22.6815 0 23.5717 0 24.5C0 25.4283 0.368749 26.3185 1.02513 26.9749C1.6815 27.6313 2.57174 28 3.5 28V28Z" fill="#535252"/>
<path d="M17.5 3.5C17.5 4.42826 17.1313 5.3185 16.4749 5.97487C15.8185 6.63125 14.9283 7 14 7C13.0717 7 12.1815 6.63125 11.5251 5.97487C10.8687 5.3185 10.5 4.42826 10.5 3.5C10.5 2.57174 10.8687 1.6815 11.5251 1.02513C12.1815 0.368749 13.0717 0 14 0C14.9283 0 15.8185 0.368749 16.4749 1.02513C17.1313 1.6815 17.5 2.57174 17.5 3.5V3.5Z" fill="#535252"/>
<path d="M14 17.5C14.9283 17.5 15.8185 17.1313 16.4749 16.4749C17.1313 15.8185 17.5 14.9283 17.5 14C17.5 13.0717 17.1313 12.1815 16.4749 11.5251C15.8185 10.8687 14.9283 10.5 14 10.5C13.0717 10.5 12.1815 10.8687 11.5251 11.5251C10.8687 12.1815 10.5 13.0717 10.5 14C10.5 14.9283 10.8687 15.8185 11.5251 16.4749C12.1815 17.1313 13.0717 17.5 14 17.5Z" fill="#535252"/>
<path d="M17.5 24.5C17.5 25.4283 17.1313 26.3185 16.4749 26.9749C15.8185 27.6313 14.9283 28 14 28C13.0717 28 12.1815 27.6313 11.5251 26.9749C10.8687 26.3185 10.5 25.4283 10.5 24.5C10.5 23.5717 10.8687 22.6815 11.5251 22.0251C12.1815 21.3687 13.0717 21 14 21C14.9283 21 15.8185 21.3687 16.4749 22.0251C17.1313 22.6815 17.5 23.5717 17.5 24.5V24.5Z" fill="#535252"/>
<path d="M24.5 7C25.4283 7 26.3185 6.63125 26.9749 5.97487C27.6313 5.3185 28 4.42826 28 3.5C28 2.57174 27.6313 1.6815 26.9749 1.02513C26.3185 0.368749 25.4283 0 24.5 0C23.5717 0 22.6815 0.368749 22.0251 1.02513C21.3687 1.6815 21 2.57174 21 3.5C21 4.42826 21.3687 5.3185 22.0251 5.97487C22.6815 6.63125 23.5717 7 24.5 7V7Z" fill="#535252"/>
<path d="M28 14C28 14.9283 27.6313 15.8185 26.9749 16.4749C26.3185 17.1313 25.4283 17.5 24.5 17.5C23.5717 17.5 22.6815 17.1313 22.0251 16.4749C21.3687 15.8185 21 14.9283 21 14C21 13.0717 21.3687 12.1815 22.0251 11.5251C22.6815 10.8687 23.5717 10.5 24.5 10.5C25.4283 10.5 26.3185 10.8687 26.9749 11.5251C27.6313 12.1815 28 13.0717 28 14Z" fill="#535252"/>
<path d="M24.5 28C25.4283 28 26.3185 27.6313 26.9749 26.9749C27.6313 26.3185 28 25.4283 28 24.5C28 23.5717 27.6313 22.6815 26.9749 22.0251C26.3185 21.3687 25.4283 21 24.5 21C23.5717 21 22.6815 21.3687 22.0251 22.0251C21.3687 22.6815 21 23.5717 21 24.5C21 25.4283 21.3687 26.3185 22.0251 26.9749C22.6815 27.6313 23.5717 28 24.5 28V28Z" fill="#535252"/>
</svg>
