<svg width="28" height="28" viewBox="0 0 28 28" fill="none" xmlns="http://www.w3.org/2000/svg">
<path d="M12.9231 2.15385V4.3077H4.30769C3.73646 4.3077 3.18862 4.53462 2.78469 4.93855C2.38077 5.34247 2.15385 5.89031 2.15385 6.46155V23.6923C2.15385 24.2636 2.38077 24.8114 2.78469 25.2153C3.18862 25.6192 3.73646 25.8462 4.30769 25.8462H21.5385C22.1097 25.8462 22.6575 25.6192 23.0615 25.2153C23.4654 24.8114 23.6923 24.2636 23.6923 23.6923V15.0769H25.8462V23.6923C25.8462 24.8348 25.3923 25.9305 24.5845 26.7383C23.7766 27.5462 22.6809 28 21.5385 28H4.30769C3.16522 28 2.06954 27.5462 1.26169 26.7383C0.453845 25.9305 0 24.8348 0 23.6923V6.46155C0 5.31908 0.453845 4.2234 1.26169 3.41555C2.06954 2.6077 3.16522 2.15385 4.30769 2.15385H12.9231Z" fill="#535252"/>
<path d="M21.5386 10.7692C22.681 10.7692 23.7767 10.3154 24.5846 9.50754C25.3924 8.69969 25.8463 7.60401 25.8463 6.46154C25.8463 5.31907 25.3924 4.22339 24.5846 3.41554C23.7767 2.60769 22.681 2.15385 21.5386 2.15385C20.3961 2.15385 19.3004 2.60769 18.4926 3.41554C17.6847 4.22339 17.2309 5.31907 17.2309 6.46154C17.2309 7.60401 17.6847 8.69969 18.4926 9.50754C19.3004 10.3154 20.3961 10.7692 21.5386 10.7692ZM21.5386 12.9231C20.69 12.9231 19.8498 12.7559 19.0658 12.4312C18.2819 12.1065 17.5696 11.6305 16.9696 11.0305C16.3696 10.4305 15.8936 9.71821 15.5689 8.93426C15.2442 8.15031 15.077 7.31008 15.077 6.46154C15.077 5.613 15.2442 4.77276 15.5689 3.98881C15.8936 3.20486 16.3696 2.49255 16.9696 1.89254C17.5696 1.29253 18.2819 0.816578 19.0658 0.491855C19.8498 0.167133 20.69 -1.26443e-08 21.5386 0C23.2523 2.55362e-08 24.8958 0.680767 26.1076 1.89254C27.3193 3.10431 28.0001 4.74783 28.0001 6.46154C28.0001 8.17525 27.3193 9.81876 26.1076 11.0305C24.8958 12.2423 23.2523 12.9231 21.5386 12.9231Z" fill="#535252"/>
</svg>
