<svg width="28" height="28" viewBox="0 0 28 28" fill="none" xmlns="http://www.w3.org/2000/svg">
<path d="M10.9977 1.60055e-07C13.0883 -0.000356411 15.1358 0.595073 16.9002 1.71653C18.6646 2.83799 20.0728 4.43903 20.96 6.33209C21.8471 8.22515 22.1764 10.3318 21.9093 12.4053C21.6421 14.4788 20.7896 16.4332 19.4516 18.0396L27.7055 26.2914C27.8827 26.4677 27.9874 26.7041 27.9989 26.9538C28.0105 27.2035 27.9281 27.4485 27.768 27.6405C27.6079 27.8325 27.3816 27.9575 27.1339 27.991C26.8862 28.0245 26.6349 27.9639 26.4295 27.8213L26.2895 27.7073L18.0376 19.4535C16.68 20.5837 15.0702 21.3702 13.3443 21.7467C11.6185 22.1232 9.82734 22.0785 8.1224 21.6164C6.41747 21.1543 4.8489 20.2885 3.54936 19.092C2.24982 17.8956 1.25754 16.4038 0.656444 14.7428C0.0553522 13.0818 -0.136871 11.3004 0.0960336 9.54943C0.328938 7.79843 0.980119 6.12928 1.9945 4.68315C3.00888 3.23701 4.35662 2.05644 5.92373 1.24129C7.49084 0.426128 9.23121 0.000361986 10.9977 1.60055e-07V1.60055e-07ZM10.9977 1.99995C8.61073 1.99995 6.32156 2.94814 4.63375 4.63593C2.94594 6.32371 1.99773 8.61284 1.99773 10.9997C1.99773 13.3866 2.94594 15.6757 4.63375 17.3635C6.32156 19.0513 8.61073 19.9995 10.9977 19.9995C13.3846 19.9995 15.6738 19.0513 17.3616 17.3635C19.0494 15.6757 19.9976 13.3866 19.9976 10.9997C19.9976 8.61284 19.0494 6.32371 17.3616 4.63593C15.6738 2.94814 13.3846 1.99995 10.9977 1.99995Z" fill="#535252"/>
</svg>
