<svg width="15" height="15" viewBox="0 0 15 15" fill="none" xmlns="http://www.w3.org/2000/svg">
<path d="M5.8916 8.57437e-08C7.0116 -0.000190935 8.10845 0.318789 9.05366 0.919571C9.99888 1.52035 10.7533 2.37805 11.2286 3.39219C11.7038 4.40633 11.8802 5.5349 11.7371 6.64569C11.594 7.75648 11.1373 8.80349 10.4205 9.66405L14.8422 14.0847C14.9372 14.1791 14.9932 14.3057 14.9994 14.4395C15.0056 14.5733 14.9615 14.7046 14.8757 14.8074C14.7899 14.9103 14.6687 14.9772 14.536 14.9952C14.4033 15.0131 14.2687 14.9807 14.1587 14.9043L14.0837 14.8432L9.663 10.4215C8.93572 11.027 8.07332 11.4483 7.14876 11.65C6.22419 11.8517 5.26465 11.8278 4.35129 11.5802C3.43793 11.3327 2.59762 10.8688 1.90144 10.2279C1.20526 9.58691 0.67368 8.78773 0.351667 7.8979C0.029653 7.00808 -0.0733236 6.0538 0.0514466 5.11576C0.176217 4.17773 0.525064 3.28354 1.06848 2.50883C1.6119 1.73411 2.3339 1.10167 3.17343 0.664974C4.01295 0.228283 4.94529 0.000193921 5.8916 8.57437e-08ZM5.8916 1.0714C4.61289 1.0714 3.38655 1.57936 2.48237 2.48353C1.57818 3.3877 1.07021 4.61402 1.07021 5.89271C1.07021 7.1714 1.57818 8.39772 2.48237 9.30189C3.38655 10.2061 4.61289 10.714 5.8916 10.714C7.17032 10.714 8.39666 10.2061 9.30084 9.30189C10.205 8.39772 10.713 7.1714 10.713 5.89271C10.713 4.61402 10.205 3.3877 9.30084 2.48353C8.39666 1.57936 7.17032 1.0714 5.8916 1.0714Z" fill="white"/>
</svg>
