<svg width="22" height="22" viewBox="0 0 22 22" fill="none" xmlns="http://www.w3.org/2000/svg">
<path d="M1.77083 21.25C1.77083 21.25 0 21.25 0 19.4792C0 17.7083 1.77083 12.3958 10.625 12.3958C19.4792 12.3958 21.25 17.7083 21.25 19.4792C21.25 21.25 19.4792 21.25 19.4792 21.25H1.77083ZM10.625 10.625C12.034 10.625 13.3852 10.0653 14.3815 9.06901C15.3778 8.07272 15.9375 6.72146 15.9375 5.3125C15.9375 3.90354 15.3778 2.55228 14.3815 1.556C13.3852 0.559708 12.034 0 10.625 0C9.21604 0 7.86478 0.559708 6.8685 1.556C5.87221 2.55228 5.3125 3.90354 5.3125 5.3125C5.3125 6.72146 5.87221 8.07272 6.8685 9.06901C7.86478 10.0653 9.21604 10.625 10.625 10.625Z" fill="white"/>
</svg>
