<svg width="38" height="38" viewBox="0 0 38 38" fill="none" xmlns="http://www.w3.org/2000/svg">
<circle cx="19" cy="19" r="19" fill="#D3D3D3"/>
<path d="M10.1914 22.9268V24H5.21484V22.9268H10.1914ZM5.47461 14.0469V24H4.15527V14.0469H5.47461ZM11.1758 20.3838V20.2266C11.1758 19.6934 11.2533 19.1989 11.4082 18.7432C11.5632 18.2829 11.7865 17.8841 12.0781 17.5469C12.3698 17.2051 12.723 16.9408 13.1377 16.7539C13.5524 16.5625 14.0173 16.4668 14.5322 16.4668C15.0518 16.4668 15.5189 16.5625 15.9336 16.7539C16.3529 16.9408 16.7083 17.2051 17 17.5469C17.2962 17.8841 17.5218 18.2829 17.6768 18.7432C17.8317 19.1989 17.9092 19.6934 17.9092 20.2266V20.3838C17.9092 20.917 17.8317 21.4115 17.6768 21.8672C17.5218 22.3229 17.2962 22.7217 17 23.0635C16.7083 23.4007 16.3551 23.665 15.9404 23.8564C15.5303 24.0433 15.0654 24.1367 14.5459 24.1367C14.0264 24.1367 13.5592 24.0433 13.1445 23.8564C12.7298 23.665 12.3743 23.4007 12.0781 23.0635C11.7865 22.7217 11.5632 22.3229 11.4082 21.8672C11.2533 21.4115 11.1758 20.917 11.1758 20.3838ZM12.4404 20.2266V20.3838C12.4404 20.7529 12.4837 21.1016 12.5703 21.4297C12.6569 21.7533 12.7868 22.0404 12.96 22.291C13.1377 22.5417 13.3587 22.7399 13.623 22.8857C13.8874 23.027 14.195 23.0977 14.5459 23.0977C14.8923 23.0977 15.1953 23.027 15.4551 22.8857C15.7194 22.7399 15.9382 22.5417 16.1113 22.291C16.2845 22.0404 16.4144 21.7533 16.501 21.4297C16.5921 21.1016 16.6377 20.7529 16.6377 20.3838V20.2266C16.6377 19.862 16.5921 19.5179 16.501 19.1943C16.4144 18.8662 16.2822 18.5768 16.1045 18.3262C15.9313 18.071 15.7126 17.8704 15.4482 17.7246C15.1885 17.5788 14.8831 17.5059 14.5322 17.5059C14.1859 17.5059 13.8805 17.5788 13.6162 17.7246C13.3564 17.8704 13.1377 18.071 12.96 18.3262C12.7868 18.5768 12.6569 18.8662 12.5703 19.1943C12.4837 19.5179 12.4404 19.862 12.4404 20.2266ZM24.2871 16.6035H25.4355V23.8428C25.4355 24.4945 25.3034 25.0505 25.0391 25.5107C24.7747 25.971 24.4056 26.3197 23.9316 26.5566C23.4622 26.7982 22.9199 26.9189 22.3047 26.9189C22.0495 26.9189 21.7487 26.8779 21.4023 26.7959C21.0605 26.7184 20.7233 26.584 20.3906 26.3926C20.0625 26.2057 19.7868 25.9528 19.5635 25.6338L20.2266 24.8818C20.5365 25.2555 20.86 25.5153 21.1973 25.6611C21.5391 25.807 21.8763 25.8799 22.209 25.8799C22.61 25.8799 22.9564 25.8047 23.248 25.6543C23.5397 25.5039 23.7653 25.2806 23.9248 24.9844C24.0889 24.6927 24.1709 24.3327 24.1709 23.9043V18.2305L24.2871 16.6035ZM19.1943 20.3838V20.2402C19.1943 19.6751 19.2604 19.1624 19.3926 18.7021C19.5293 18.2373 19.723 17.8385 19.9736 17.5059C20.2288 17.1732 20.5365 16.918 20.8965 16.7402C21.2565 16.5579 21.6621 16.4668 22.1133 16.4668C22.5781 16.4668 22.9837 16.5488 23.3301 16.7129C23.681 16.8724 23.9772 17.1071 24.2188 17.417C24.4648 17.7223 24.6585 18.0915 24.7998 18.5244C24.9411 18.9574 25.0391 19.4473 25.0938 19.9941V20.623C25.0436 21.1654 24.9456 21.653 24.7998 22.0859C24.6585 22.5189 24.4648 22.888 24.2188 23.1934C23.9772 23.4987 23.681 23.7334 23.3301 23.8975C22.9792 24.057 22.569 24.1367 22.0996 24.1367C21.6576 24.1367 21.2565 24.0433 20.8965 23.8564C20.541 23.6696 20.2357 23.4076 19.9805 23.0703C19.7253 22.7331 19.5293 22.3366 19.3926 21.8809C19.2604 21.4206 19.1943 20.9215 19.1943 20.3838ZM20.459 20.2402V20.3838C20.459 20.7529 20.4954 21.0993 20.5684 21.4229C20.6458 21.7464 20.762 22.0312 20.917 22.2773C21.0765 22.5234 21.2793 22.7171 21.5254 22.8584C21.7715 22.9951 22.0654 23.0635 22.4072 23.0635C22.8265 23.0635 23.1729 22.9746 23.4463 22.7969C23.7197 22.6191 23.9362 22.3844 24.0957 22.0928C24.2598 21.8011 24.3874 21.4844 24.4785 21.1426V19.4951C24.4284 19.2445 24.3509 19.0029 24.2461 18.7705C24.1458 18.5335 24.0137 18.3239 23.8496 18.1416C23.6901 17.9548 23.4919 17.8066 23.2549 17.6973C23.0179 17.5879 22.7399 17.5332 22.4209 17.5332C22.0745 17.5332 21.776 17.6061 21.5254 17.752C21.2793 17.8932 21.0765 18.0892 20.917 18.3398C20.762 18.5859 20.6458 18.873 20.5684 19.2012C20.4954 19.5247 20.459 19.8711 20.459 20.2402ZM27.0215 20.3838V20.2266C27.0215 19.6934 27.099 19.1989 27.2539 18.7432C27.4089 18.2829 27.6322 17.8841 27.9238 17.5469C28.2155 17.2051 28.5687 16.9408 28.9834 16.7539C29.3981 16.5625 29.863 16.4668 30.3779 16.4668C30.8975 16.4668 31.3646 16.5625 31.7793 16.7539C32.1986 16.9408 32.554 17.2051 32.8457 17.5469C33.1419 17.8841 33.3675 18.2829 33.5225 18.7432C33.6774 19.1989 33.7549 19.6934 33.7549 20.2266V20.3838C33.7549 20.917 33.6774 21.4115 33.5225 21.8672C33.3675 22.3229 33.1419 22.7217 32.8457 23.0635C32.554 23.4007 32.2008 23.665 31.7861 23.8564C31.376 24.0433 30.9111 24.1367 30.3916 24.1367C29.8721 24.1367 29.4049 24.0433 28.9902 23.8564C28.5755 23.665 28.2201 23.4007 27.9238 23.0635C27.6322 22.7217 27.4089 22.3229 27.2539 21.8672C27.099 21.4115 27.0215 20.917 27.0215 20.3838ZM28.2861 20.2266V20.3838C28.2861 20.7529 28.3294 21.1016 28.416 21.4297C28.5026 21.7533 28.6325 22.0404 28.8057 22.291C28.9834 22.5417 29.2044 22.7399 29.4688 22.8857C29.7331 23.027 30.0407 23.0977 30.3916 23.0977C30.738 23.0977 31.041 23.027 31.3008 22.8857C31.5651 22.7399 31.7839 22.5417 31.957 22.291C32.1302 22.0404 32.2601 21.7533 32.3467 21.4297C32.4378 21.1016 32.4834 20.7529 32.4834 20.3838V20.2266C32.4834 19.862 32.4378 19.5179 32.3467 19.1943C32.2601 18.8662 32.1279 18.5768 31.9502 18.3262C31.777 18.071 31.5583 17.8704 31.2939 17.7246C31.0342 17.5788 30.7288 17.5059 30.3779 17.5059C30.0316 17.5059 29.7262 17.5788 29.4619 17.7246C29.2021 17.8704 28.9834 18.071 28.8057 18.3262C28.6325 18.5768 28.5026 18.8662 28.416 19.1943C28.3294 19.5179 28.2861 19.862 28.2861 20.2266Z" fill="black"/>
</svg>
