<svg width="171" height="53" viewBox="0 0 171 53" fill="none" xmlns="http://www.w3.org/2000/svg">
<path d="M29.3237 30.6456C22.3266 37.9955 14.4702 43.0187 7.43793 45.2074C15.1421 46.0935 24.7185 42.0201 32.4265 33.9234C40.1346 25.8267 43.9912 15.711 43.2092 7.63239C41.0368 15.0338 36.3208 23.2956 29.3237 30.6456Z" fill="#AB7FFA"/>
<path d="M21.2474 30.8603C14.2566 23.4752 9.47285 15.1895 7.41899 7.73804C6.5927 15.852 10.4407 25.9871 18.1418 34.1226C25.8428 42.258 35.4531 46.3402 43.158 45.4929C36.0528 43.2687 28.2382 38.2454 21.2474 30.8603Z" fill="#7F96FA"/>
<path d="M21.0292 22.3544C28.0263 15.0045 35.8826 9.98123 42.9149 7.7926C35.2481 6.94595 25.6344 10.9798 17.9263 19.0765C10.2183 27.1732 6.36166 37.2889 7.14362 45.3676C9.24124 37.9659 13.9947 29.7436 21.0292 22.3544Z" fill="#C47AF0"/>
<path d="M29.1055 22.1397C36.0963 29.5248 40.8801 37.8105 42.9339 45.262C43.7602 37.1479 39.9123 27.0129 32.2112 18.8774C24.5101 10.742 14.8998 6.65975 7.19485 7.50715C14.2627 9.69183 22.0773 14.7151 29.1055 22.1397Z" fill="#7AAFF0"/>
<path d="M59.9729 37.9167V31.6767C59.7302 32.11 59.4182 32.4914 59.0369 32.8207C58.6729 33.15 58.2569 33.4014 57.7889 33.5747C57.3382 33.748 56.8529 33.8347 56.3329 33.8347C55.6569 33.8347 55.0156 33.6874 54.4089 33.3927C53.8196 33.0807 53.2996 32.656 52.8489 32.1187C52.4156 31.564 52.0689 30.9054 51.8089 30.1427C51.5662 29.38 51.4449 28.5307 51.4449 27.5947C51.4449 26.6067 51.5836 25.7314 51.8609 24.9687C52.1382 24.206 52.5109 23.556 52.9789 23.0187C53.4642 22.4814 54.0189 22.074 54.6429 21.7967C55.2842 21.5194 55.9602 21.3807 56.6709 21.3807C57.0869 21.3807 57.4682 21.4327 57.8149 21.5367C58.1616 21.6234 58.4736 21.7534 58.7509 21.9267C59.0456 22.1 59.2969 22.3167 59.5049 22.5767C59.7302 22.8367 59.9209 23.1227 60.0769 23.4347V21.6927H61.8449V37.9167H59.9729ZM56.6709 32.1967C57.1216 32.1967 57.5376 32.11 57.9189 31.9367C58.3176 31.746 58.6642 31.46 58.9589 31.0787C59.2709 30.68 59.5049 30.1687 59.6609 29.5447C59.8342 28.9207 59.9209 28.1754 59.9209 27.3087C59.9209 26.494 59.8429 25.8094 59.6869 25.2547C59.5482 24.6827 59.3402 24.232 59.0629 23.9027C58.7856 23.556 58.4649 23.3047 58.1009 23.1487C57.7369 22.9927 57.3296 22.9147 56.8789 22.9147C56.3936 22.9147 55.9342 23.01 55.5009 23.2007C55.0676 23.374 54.6862 23.6514 54.3569 24.0327C54.0449 24.3967 53.7936 24.8734 53.6029 25.4627C53.4296 26.0347 53.3429 26.7194 53.3429 27.5167C53.3429 28.2447 53.4209 28.8947 53.5769 29.4667C53.7329 30.0387 53.9582 30.5327 54.2529 30.9487C54.5476 31.3474 54.8942 31.6594 55.2929 31.8847C55.7089 32.0927 56.1682 32.1967 56.6709 32.1967ZM69.0989 33.8607C68.6309 33.8607 68.1889 33.7914 67.7729 33.6527C67.3569 33.514 66.9756 33.306 66.6289 33.0287C66.2996 32.734 66.0136 32.37 65.7709 31.9367C65.5282 31.5034 65.3376 30.9834 65.1989 30.3767C65.0776 29.77 65.0169 29.0854 65.0169 28.3227L65.0429 21.6927H66.8629V28.3227C66.8629 29.068 66.9322 29.7007 67.0709 30.2207C67.2096 30.7407 67.4002 31.1567 67.6429 31.4687C67.9029 31.7807 68.1976 32.006 68.5269 32.1447C68.8562 32.2834 69.2029 32.3527 69.5669 32.3527C69.9829 32.3527 70.3816 32.2747 70.7629 32.1187C71.1442 31.9454 71.4822 31.694 71.7769 31.3647C72.0889 31.0354 72.3316 30.6107 72.5049 30.0907C72.6782 29.5707 72.7649 28.9554 72.7649 28.2447V21.6927H74.5849V31.7287C74.5849 32.0407 74.5936 32.3527 74.6109 32.6647C74.6456 32.9594 74.7236 33.2627 74.8449 33.5747H73.0509C72.9642 33.3667 72.9036 33.1674 72.8689 32.9767C72.8342 32.7687 72.8082 32.5607 72.7909 32.3527C72.7909 32.1447 72.7909 31.9454 72.7909 31.7547C72.6002 32.084 72.3749 32.3787 72.1149 32.6387C71.8549 32.8987 71.5602 33.124 71.2309 33.3147C70.9189 33.488 70.5809 33.618 70.2169 33.7047C69.8702 33.8087 69.4976 33.8607 69.0989 33.8607ZM81.8389 33.8607C80.4869 33.8607 79.4469 33.5574 78.7189 32.9507C77.9909 32.3267 77.6269 31.538 77.6269 30.5847C77.6269 29.9434 77.7829 29.3714 78.0949 28.8687C78.4069 28.3487 78.8316 27.9154 79.3689 27.5687C79.9236 27.2047 80.5649 26.9274 81.2929 26.7367C82.0209 26.546 82.7922 26.4507 83.6069 26.4507C83.9016 26.4507 84.1962 26.4594 84.4909 26.4767C84.8029 26.4767 85.1236 26.494 85.4529 26.5287C85.7996 26.546 86.1549 26.5807 86.5189 26.6327L86.5709 28.0627C86.2589 28.0107 85.9382 27.976 85.6089 27.9587C85.2969 27.924 84.9849 27.898 84.6729 27.8807C84.3609 27.8634 84.0576 27.8547 83.7629 27.8547C83.1389 27.8547 82.5669 27.9067 82.0469 28.0107C81.5269 28.1147 81.0762 28.2707 80.6949 28.4787C80.3136 28.6867 80.0189 28.9554 79.8109 29.2847C79.6029 29.614 79.4989 30.0127 79.4989 30.4807C79.4989 30.8447 79.5596 31.1567 79.6809 31.4167C79.8196 31.6594 80.0016 31.8587 80.2269 32.0147C80.4522 32.1534 80.7122 32.2574 81.0069 32.3267C81.3189 32.396 81.6569 32.4307 82.0209 32.4307C82.6969 32.4307 83.2949 32.3267 83.8149 32.1187C84.3522 31.8934 84.8029 31.5727 85.1669 31.1567C85.5482 30.7407 85.8342 30.2294 86.0249 29.6227C86.2156 29.016 86.3109 28.3227 86.3109 27.5427C86.3109 26.364 86.1722 25.4454 85.8949 24.7867C85.6176 24.128 85.2016 23.66 84.6469 23.3827C84.1096 23.1054 83.4162 22.9667 82.5669 22.9667C81.9949 22.9667 81.4316 23.0794 80.8769 23.3047C80.3222 23.5127 79.8196 23.842 79.3689 24.2927L78.4589 23.0967C79.0136 22.542 79.6549 22.126 80.3829 21.8487C81.1109 21.5714 81.8822 21.4327 82.6969 21.4327C83.4769 21.4327 84.1876 21.528 84.8289 21.7187C85.4702 21.9094 86.0162 22.23 86.4669 22.6807C86.9349 23.114 87.2902 23.7034 87.5329 24.4487C87.7929 25.194 87.9229 26.13 87.9229 27.2567V33.5747H85.8949V31.7547C85.6696 32.188 85.3922 32.5434 85.0629 32.8207C84.7509 33.098 84.4129 33.3147 84.0489 33.4707C83.6849 33.6094 83.3122 33.7047 82.9309 33.7567C82.5496 33.826 82.1856 33.8607 81.8389 33.8607ZM91.2249 33.5747V21.6927H93.0449V23.7987C93.3569 23.3134 93.7209 22.8974 94.1369 22.5507C94.5529 22.1867 95.0122 21.9094 95.5149 21.7187C96.0176 21.5107 96.5376 21.4067 97.0749 21.4067C97.7336 21.4067 98.3229 21.5714 98.8429 21.9007C99.3629 22.23 99.7789 22.7587 100.091 23.4867C100.403 24.2147 100.559 25.1767 100.559 26.3727V33.5747H98.7389V26.4247C98.7389 25.5927 98.6436 24.934 98.4529 24.4487C98.2622 23.946 98.0022 23.5907 97.6729 23.3827C97.3436 23.1574 96.9709 23.0447 96.5549 23.0447C96.1562 23.0447 95.7489 23.1314 95.3329 23.3047C94.9342 23.478 94.5616 23.7294 94.2149 24.0587C93.8682 24.3707 93.5822 24.752 93.3569 25.2027C93.1489 25.6534 93.0449 26.1647 93.0449 26.7367V33.5747H91.2249ZM110.127 33.7567C109.364 33.7567 108.74 33.6267 108.255 33.3667C107.77 33.1067 107.397 32.708 107.137 32.1707C106.877 31.616 106.704 30.9227 106.617 30.0907C106.548 29.2587 106.53 28.2707 106.565 27.1267L106.877 18.6507L108.827 18.4167L109.087 18.3907L109.113 18.5727C109.026 18.694 108.948 18.8154 108.879 18.9367C108.827 19.058 108.784 19.266 108.749 19.5607L108.515 22.4987L108.593 22.9667L108.411 27.2567C108.359 28.574 108.394 29.5967 108.515 30.3247C108.636 31.0354 108.853 31.5294 109.165 31.8067C109.477 32.0667 109.893 32.1967 110.413 32.1967C110.985 32.1967 111.488 32.084 111.921 31.8587C112.372 31.6334 112.84 31.3474 113.325 31.0007L113.897 32.4827C113.308 32.916 112.701 33.2367 112.077 33.4447C111.453 33.6527 110.803 33.7567 110.127 33.7567ZM104.173 21.6927H112.727V23.2267H104.173V21.6927ZM121.853 33.7827C120.778 33.7827 119.851 33.5227 119.071 33.0027C118.291 32.4827 117.684 31.7634 117.251 30.8447C116.835 29.926 116.627 28.8687 116.627 27.6727C116.627 26.4594 116.835 25.3934 117.251 24.4747C117.684 23.556 118.291 22.8367 119.071 22.3167C119.851 21.7967 120.778 21.5367 121.853 21.5367C122.928 21.5367 123.855 21.7967 124.635 22.3167C125.415 22.8367 126.013 23.556 126.429 24.4747C126.862 25.3934 127.079 26.4594 127.079 27.6727C127.079 28.8687 126.862 29.926 126.429 30.8447C126.013 31.7634 125.415 32.4827 124.635 33.0027C123.855 33.5227 122.928 33.7827 121.853 33.7827ZM121.853 32.6907C122.685 32.6907 123.387 32.474 123.959 32.0407C124.548 31.6074 124.999 31.0094 125.311 30.2467C125.623 29.484 125.779 28.6174 125.779 27.6467C125.779 26.624 125.606 25.74 125.259 24.9947C124.93 24.232 124.47 23.6427 123.881 23.2267C123.309 22.8107 122.633 22.6027 121.853 22.6027C121.056 22.6027 120.362 22.8194 119.773 23.2527C119.184 23.686 118.733 24.284 118.421 25.0467C118.109 25.792 117.953 26.6587 117.953 27.6467C117.953 28.6347 118.109 29.51 118.421 30.2727C118.733 31.0354 119.184 31.6334 119.773 32.0667C120.362 32.4827 121.056 32.6907 121.853 32.6907ZM130.095 37.9167V21.7967H131.343V24.3187C131.551 23.7467 131.837 23.2527 132.201 22.8367C132.582 22.4207 133.033 22.1 133.553 21.8747C134.09 21.6494 134.688 21.5367 135.347 21.5367C135.971 21.5367 136.569 21.658 137.141 21.9007C137.73 22.1434 138.25 22.516 138.701 23.0187C139.152 23.504 139.507 24.128 139.767 24.8907C140.027 25.636 140.157 26.52 140.157 27.5427C140.157 28.6174 140.018 29.562 139.741 30.3767C139.481 31.174 139.117 31.8327 138.649 32.3527C138.198 32.8554 137.678 33.2367 137.089 33.4967C136.517 33.7567 135.919 33.8867 135.295 33.8867C134.74 33.8867 134.203 33.7827 133.683 33.5747C133.18 33.384 132.73 33.098 132.331 32.7167C131.932 32.3354 131.612 31.8847 131.369 31.3647V37.9167H130.095ZM135.061 32.7687C135.546 32.7687 136.014 32.682 136.465 32.5087C136.916 32.318 137.323 32.0234 137.687 31.6247C138.051 31.2087 138.337 30.6714 138.545 30.0127C138.753 29.354 138.857 28.5567 138.857 27.6207C138.857 26.5287 138.701 25.6187 138.389 24.8907C138.094 24.1627 137.678 23.608 137.141 23.2267C136.604 22.8454 135.98 22.646 135.269 22.6287C134.714 22.6114 134.194 22.7067 133.709 22.9147C133.241 23.1054 132.825 23.4174 132.461 23.8507C132.114 24.284 131.837 24.8474 131.629 25.5407C131.438 26.234 131.343 27.066 131.343 28.0367C131.36 28.73 131.438 29.3454 131.577 29.8827C131.733 30.4027 131.932 30.8534 132.175 31.2347C132.435 31.5987 132.721 31.8934 133.033 32.1187C133.362 32.344 133.7 32.5087 134.047 32.6127C134.394 32.7167 134.732 32.7687 135.061 32.7687ZM147.281 33.8607C146.83 33.8607 146.397 33.7914 145.981 33.6527C145.582 33.5314 145.21 33.332 144.863 33.0547C144.534 32.7774 144.248 32.4307 144.005 32.0147C143.762 31.5814 143.572 31.07 143.433 30.4807C143.312 29.8914 143.251 29.2154 143.251 28.4527L143.277 21.7967H144.499V28.4527C144.499 29.2674 144.577 29.9607 144.733 30.5327C144.906 31.0874 145.132 31.5294 145.409 31.8587C145.704 32.188 146.042 32.4307 146.423 32.5867C146.804 32.7254 147.22 32.7947 147.671 32.7947C148.156 32.7947 148.607 32.708 149.023 32.5347C149.456 32.344 149.838 32.0667 150.167 31.7027C150.496 31.3214 150.756 30.8534 150.947 30.2987C151.138 29.744 151.233 29.094 151.233 28.3487V21.7967H152.455V31.4427C152.455 31.7547 152.464 32.11 152.481 32.5087C152.516 32.9074 152.594 33.2627 152.715 33.5747H151.493C151.406 33.3667 151.346 33.1414 151.311 32.8987C151.276 32.656 151.25 32.4134 151.233 32.1707C151.233 31.9107 151.233 31.6854 151.233 31.4947C151.06 31.824 150.852 32.1274 150.609 32.4047C150.384 32.682 150.106 32.9334 149.777 33.1587C149.465 33.3667 149.101 33.5314 148.685 33.6527C148.269 33.7914 147.801 33.8607 147.281 33.8607ZM160.905 33.8347C160.264 33.8174 159.648 33.7394 159.059 33.6007C158.487 33.4794 157.941 33.28 157.421 33.0027C156.901 32.7254 156.416 32.3787 155.965 31.9627L156.693 30.8187L156.849 30.6367L157.005 30.7407C157.005 30.8447 157.031 30.9574 157.083 31.0787C157.135 31.2 157.265 31.3647 157.473 31.5727C157.889 31.9194 158.383 32.2054 158.955 32.4307C159.544 32.6387 160.212 32.7427 160.957 32.7427C161.737 32.7427 162.378 32.656 162.881 32.4827C163.384 32.3094 163.765 32.058 164.025 31.7287C164.285 31.382 164.415 30.966 164.415 30.4807C164.415 30.186 164.346 29.9174 164.207 29.6747C164.068 29.432 163.852 29.2154 163.557 29.0247C163.28 28.8167 162.924 28.626 162.491 28.4527C162.058 28.2794 161.546 28.1147 160.957 27.9587C160.108 27.7334 159.354 27.456 158.695 27.1267C158.054 26.7974 157.542 26.416 157.161 25.9827C156.797 25.532 156.615 25.0207 156.615 24.4487C156.615 23.8594 156.78 23.348 157.109 22.9147C157.456 22.464 157.941 22.1174 158.565 21.8747C159.206 21.632 159.986 21.5107 160.905 21.5107C161.46 21.5107 161.954 21.5454 162.387 21.6147C162.82 21.684 163.219 21.7967 163.583 21.9527C163.947 22.0914 164.276 22.2734 164.571 22.4987C164.883 22.7067 165.178 22.958 165.455 23.2527L164.727 24.1627L164.571 24.3707L164.441 24.2407C164.441 24.1194 164.406 24.0067 164.337 23.9027C164.285 23.7814 164.155 23.6167 163.947 23.4087C163.566 23.114 163.124 22.8887 162.621 22.7327C162.118 22.5767 161.572 22.4987 160.983 22.4987C160.012 22.4987 159.25 22.6634 158.695 22.9927C158.158 23.322 157.889 23.79 157.889 24.3967C157.889 24.7607 158.01 25.09 158.253 25.3847C158.513 25.6794 158.912 25.9567 159.449 26.2167C159.986 26.4767 160.68 26.7194 161.529 26.9447C162.448 27.1874 163.21 27.4647 163.817 27.7767C164.441 28.0887 164.9 28.4527 165.195 28.8687C165.507 29.2674 165.663 29.7527 165.663 30.3247C165.663 30.9834 165.498 31.5814 165.169 32.1187C164.857 32.656 164.346 33.0807 163.635 33.3927C162.942 33.6874 162.032 33.8347 160.905 33.8347Z" fill="#E5E3E8"/>
</svg>
