<svg width="27" height="27" viewBox="0 0 27 27" fill="none" xmlns="http://www.w3.org/2000/svg">
<path fill-rule="evenodd" clip-rule="evenodd" d="M18.4091 9.81818C18.4091 11.1202 17.8919 12.3688 16.9713 13.2894C16.0506 14.2101 14.802 14.7273 13.5 14.7273C12.198 14.7273 10.9494 14.2101 10.0288 13.2894C9.10812 12.3688 8.59091 11.1202 8.59091 9.81818C8.59091 8.51621 9.10812 7.26756 10.0288 6.34693C10.9494 5.42629 12.198 4.90909 13.5 4.90909C14.802 4.90909 16.0506 5.42629 16.9713 6.34693C17.8919 7.26756 18.4091 8.51621 18.4091 9.81818ZM15.9545 9.81818C15.9545 10.4692 15.6959 11.0935 15.2356 11.5538C14.7753 12.0141 14.151 12.2727 13.5 12.2727C12.849 12.2727 12.2247 12.0141 11.7644 11.5538C11.3041 11.0935 11.0455 10.4692 11.0455 9.81818C11.0455 9.16719 11.3041 8.54287 11.7644 8.08255C12.2247 7.62224 12.849 7.36363 13.5 7.36363C14.151 7.36363 14.7753 7.62224 15.2356 8.08255C15.6959 8.54287 15.9545 9.16719 15.9545 9.81818Z" fill="white"/>
<path fill-rule="evenodd" clip-rule="evenodd" d="M13.5 0C6.04432 0 0 6.04432 0 13.5C0 20.9557 6.04432 27 13.5 27C20.9557 27 27 20.9557 27 13.5C27 6.04432 20.9557 0 13.5 0ZM2.45455 13.5C2.45455 16.065 3.32959 18.4263 4.79618 20.3015C5.82615 18.949 7.15488 17.8528 8.67858 17.0987C10.2023 16.3447 11.8797 15.9531 13.5798 15.9545C15.2579 15.953 16.9142 16.3344 18.4225 17.0699C19.9308 17.8053 21.2514 18.8754 22.2836 20.1985C23.347 18.8038 24.0629 17.1759 24.3723 15.4496C24.6816 13.7233 24.5754 11.9482 24.0625 10.271C23.5496 8.5939 22.6447 7.06301 21.4226 5.80505C20.2006 4.54708 18.6966 3.59819 17.035 3.0369C15.3734 2.4756 13.6021 2.31804 11.8676 2.57724C10.133 2.83644 8.48511 3.50496 7.06022 4.52747C5.63533 5.54999 4.4744 6.89711 3.67351 8.45738C2.87261 10.0176 2.45477 11.7462 2.45455 13.5ZM13.5 24.5455C10.9644 24.5493 8.50533 23.677 6.53891 22.0762C7.33041 20.9431 8.38391 20.0179 9.60978 19.3795C10.8356 18.741 12.1976 18.4081 13.5798 18.4091C14.9447 18.408 16.2902 18.7326 17.5045 19.3558C18.7188 19.9791 19.7669 20.8831 20.5617 21.9927C18.58 23.6455 16.0804 24.5491 13.5 24.5455Z" fill="white"/>
</svg>
