<svg width="22" height="21" viewBox="0 0 22 21" fill="none" xmlns="http://www.w3.org/2000/svg">
<path d="M0 3.82623C0 2.81244 0.420111 1.84017 1.16791 1.12331C1.91571 0.406451 2.92995 0.00372314 3.9875 0.00372314H18.0125C19.0701 0.00372314 20.0843 0.406451 20.8321 1.12331C21.5799 1.84017 22 2.81244 22 3.82623V11.9985C22 13.0123 21.5799 13.9846 20.8321 14.7014C20.0843 15.4183 19.0701 15.821 18.0125 15.821H12.3183L6.35085 19.8586C5.53135 20.4133 4.4 19.8512 4.4 18.8895V15.821H3.9875C2.92995 15.821 1.91571 15.4183 1.16791 14.7014C0.420111 13.9846 0 13.0123 0 11.9985V3.82623Z" fill="#535252"/>
</svg>
