<svg width="16" height="21" viewBox="0 0 16 21" fill="none" xmlns="http://www.w3.org/2000/svg">
<path d="M1.78492e-07 2.51292V19.45C-8.45251e-05 19.559 0.0299794 19.666 0.0872328 19.7607C0.144486 19.8554 0.226955 19.9344 0.326522 19.99C0.426089 20.0456 0.539322 20.0758 0.655073 20.0777C0.770825 20.0796 0.885106 20.0531 0.986667 20.0008L8 16.4001L15.0133 20.0008C15.1149 20.0531 15.2292 20.0796 15.3449 20.0777C15.4607 20.0758 15.5739 20.0456 15.6735 19.99C15.773 19.9344 15.8555 19.8554 15.9128 19.7607C15.97 19.666 16.0001 19.559 16 19.45V2.51292C16 1.84744 15.719 1.20922 15.219 0.738651C14.7189 0.268085 14.0406 0.00372314 13.3333 0.00372314L2.66667 0.00372314C1.95942 0.00372314 1.28115 0.268085 0.781049 0.738651C0.280952 1.20922 1.78492e-07 1.84744 1.78492e-07 2.51292Z" fill="#535252"/>
</svg>
