<svg width="30" height="22" viewBox="0 0 30 22" fill="none" xmlns="http://www.w3.org/2000/svg">
<path d="M14.9996 14.3749C17.2087 14.3749 18.9996 12.6591 18.9996 10.5426C18.9996 8.42606 17.2087 6.71027 14.9996 6.71027C12.7904 6.71027 10.9996 8.42606 10.9996 10.5426C10.9996 12.6591 12.7904 14.3749 14.9996 14.3749Z" fill="#535252"/>
<path d="M29.9396 10.2169C28.7634 7.30205 26.7216 4.7813 24.0664 2.96619C21.4112 1.15108 18.2591 0.121158 14.9996 0.00372314C11.7401 0.121158 8.58796 1.15108 5.93278 2.96619C3.27759 4.7813 1.23574 7.30205 0.0595746 10.2169C-0.0198582 10.4274 -0.0198582 10.6579 0.0595746 10.8684C1.23574 13.7832 3.27759 16.3039 5.93278 18.119C8.58796 19.9341 11.7401 20.9641 14.9996 21.0815C18.2591 20.9641 21.4112 19.9341 24.0664 18.119C26.7216 16.3039 28.7634 13.7832 29.9396 10.8684C30.019 10.6579 30.019 10.4274 29.9396 10.2169ZM14.9996 16.7701C13.714 16.7701 12.4573 16.4049 11.3884 15.7206C10.3194 15.0363 9.48633 14.0637 8.99436 12.9258C8.50239 11.7879 8.37367 10.5357 8.62447 9.32768C8.87527 8.11966 9.49434 7.01002 10.4034 6.13909C11.3124 5.26815 12.4706 4.67504 13.7315 4.43475C14.9924 4.19446 16.2993 4.31778 17.487 4.78913C18.6747 5.26048 19.6899 6.05867 20.4041 7.08279C21.1184 8.1069 21.4996 9.31092 21.4996 10.5426C21.4969 12.1935 20.8113 13.776 19.5928 14.9433C18.3744 16.1107 16.7227 16.7676 14.9996 16.7701Z" fill="#535252"/>
</svg>
